<?xml version="1.0" standalone="no"?>
<!DOCTYPE svg PUBLIC "-//W3C//DTD SVG 20010904//EN"
 "http://www.w3.org/TR/2001/REC-SVG-20010904/DTD/svg10.dtd">
<svg version="1.0" xmlns="http://www.w3.org/2000/svg"
 width="677.000000pt" height="312.000000pt" viewBox="0 0 677.000000 312.000000"
 preserveAspectRatio="xMidYMid meet">

<g transform="translate(0.000000,312.000000) scale(0.100000,-0.100000)"
fill="#000000" stroke="none">
<path d="M3230 3051 c-79 -26 -144 -66 -204 -125 -64 -64 -103 -135 -122 -226
-20 -99 -11 -161 31 -206 29 -30 38 -34 84 -34 44 0 57 4 80 28 27 27 45 74
56 144 8 50 60 116 114 145 85 45 199 24 268 -48 42 -44 53 -77 53 -151 0
-124 -53 -182 -207 -225 -135 -38 -133 -34 -133 -233 0 -118 -4 -171 -12 -182
-7 -8 -78 -36 -158 -62 -139 -46 -622 -221 -1300 -471 -173 -64 -430 -158
-570 -210 -1000 -367 -994 -365 -1056 -419 -69 -61 -97 -126 -97 -226 -1 -133
52 -205 198 -271 83 -38 150 -44 150 -14 0 15 -13 24 -53 39 -73 26 -143 91
-165 152 -22 63 -22 130 1 174 43 81 13 70 1602 589 404 132 881 288 1060 347
179 58 370 120 424 137 l100 30 100 -30 c56 -17 247 -79 426 -137 179 -59 656
-215 1060 -347 1589 -519 1559 -508 1602 -589 23 -44 23 -111 1 -174 -22 -61
-92 -126 -165 -152 -40 -15 -53 -24 -53 -39 0 -30 67 -24 150 14 146 66 199
138 198 271 0 100 -28 165 -97 226 -62 54 -56 52 -1056 419 -140 52 -397 146
-570 210 -691 255 -1162 426 -1303 472 l-147 48 2 100 3 100 80 42 c253 134
337 412 202 666 -53 100 -163 182 -299 221 -75 22 -207 20 -278 -3z"/>
<path d="M1180 824 c-73 -20 -130 -54 -178 -109 -192 -218 -91 -550 188 -621
77 -20 152 -14 235 17 31 11 57 19 59 17 49 -71 69 -88 107 -88 21 0 39 3 39
7 0 4 -20 33 -45 64 -25 32 -45 60 -45 64 0 4 14 23 31 43 18 20 44 61 58 92
22 47 26 69 26 150 0 82 -4 103 -27 152 -81 174 -265 261 -448 212z m232 -90
c109 -55 160 -132 166 -252 2 -40 -1 -92 -8 -115 -13 -48 -60 -122 -77 -122
-6 0 -39 35 -72 78 -58 73 -63 77 -101 77 -22 0 -40 -2 -40 -5 0 -3 31 -45 68
-93 91 -116 89 -109 45 -128 -51 -22 -175 -23 -227 0 -183 78 -244 312 -125
475 81 109 248 147 371 85z"/>
<path d="M4330 430 l0 -360 35 0 35 0 0 144 c0 79 3 158 6 175 l7 31 138 0
139 0 0 40 0 40 -140 0 -140 0 0 110 0 110 145 0 145 0 0 35 0 35 -185 0 -185
0 0 -360z"/>
<path d="M2532 638 c-29 -29 -3 -72 40 -66 19 2 23 9 23 38 0 30 -4 35 -25 38
-14 2 -31 -3 -38 -10z"/>
<path d="M3446 368 c-4 -166 -3 -275 2 -280 6 -6 18 -8 28 -6 16 3 20 16 24
88 l5 84 95 -87 c82 -74 100 -87 130 -87 l35 0 -45 43 c-25 23 -76 70 -112
104 l-68 62 105 91 c58 50 105 93 105 96 0 2 -15 4 -33 4 -26 0 -49 -15 -119
-75 -48 -41 -89 -75 -92 -75 -4 0 -6 70 -6 155 l0 155 -23 0 -24 0 -7 -272z"/>
<path d="M4950 611 c-16 -31 4 -63 37 -59 34 4 52 32 37 56 -16 26 -60 28 -74
3z"/>
<path d="M5300 540 l0 -70 -35 0 c-31 0 -35 -3 -35 -25 0 -22 4 -25 35 -25
l36 0 -7 -175 -7 -175 31 0 32 0 0 175 0 175 40 0 c36 0 40 3 40 25 0 23 -4
25 -40 25 l-40 0 0 70 c0 68 -1 70 -25 70 -24 0 -25 -2 -25 -70z"/>
<path d="M2980 488 c-164 -30 -229 -242 -108 -355 82 -77 251 -72 324 8 18 20
18 21 1 34 -16 12 -24 9 -63 -18 -38 -27 -54 -32 -102 -32 -71 0 -118 26 -149
81 -43 76 -17 176 57 215 49 27 131 25 181 -3 22 -12 39 -25 39 -30 0 -11 21
-10 39 1 36 23 -58 93 -139 103 -19 3 -55 1 -80 -4z"/>
<path d="M1944 464 c-11 -44 2 -246 18 -284 21 -48 55 -77 108 -91 75 -20 158
8 195 65 17 25 34 163 35 279 0 57 0 57 -30 57 l-30 0 0 -129 c0 -138 -6 -167
-40 -199 -49 -45 -147 -34 -180 21 -17 28 -20 51 -20 170 l0 137 -25 0 c-18 0
-26 -7 -31 -26z"/>
<path d="M2537 483 c-4 -3 -7 -93 -7 -200 l0 -193 24 0 c13 0 27 7 30 16 3 9
6 99 6 200 l0 184 -23 0 c-13 0 -27 -3 -30 -7z"/>
<path d="M4960 270 l0 -200 25 0 25 0 0 200 0 200 -25 0 -25 0 0 -200z"/>
<path d="M5661 444 c-63 -53 -47 -132 37 -184 84 -52 92 -59 92 -90 0 -60 -82
-88 -130 -45 -22 19 -36 19 -44 -1 -15 -38 69 -81 133 -68 46 9 91 65 91 113
0 49 -27 83 -96 123 -73 41 -92 78 -58 112 20 21 68 20 100 -1 23 -15 26 -15
42 0 15 16 15 18 -3 32 -55 43 -120 47 -164 9z"/>
<path d="M430 270 c0 -6 90 -10 250 -10 160 0 250 4 250 10 0 6 -90 10 -250
10 -160 0 -250 -4 -250 -10z"/>
<path d="M1665 270 c-4 -6 38 -10 120 -10 82 0 124 4 120 10 -4 6 -55 10 -120
10 -65 0 -116 -4 -120 -10z"/>
<path d="M2335 270 c-4 -6 23 -10 74 -10 47 0 81 4 81 10 0 6 -31 10 -74 10
-41 0 -78 -4 -81 -10z"/>
<path d="M2640 270 c0 -6 27 -10 60 -10 33 0 60 4 60 10 0 6 -27 10 -60 10
-33 0 -60 -4 -60 -10z"/>
<path d="M2910 270 c0 -6 87 -10 240 -10 153 0 240 4 240 10 0 6 -87 10 -240
10 -153 0 -240 -4 -240 -10z"/>
<path d="M3635 270 c-4 -7 108 -10 330 -10 222 0 334 3 330 10 -4 6 -125 10
-330 10 -205 0 -326 -4 -330 -10z"/>
<path d="M4445 270 c-4 -6 25 -10 82 -11 48 0 149 -2 223 -2 82 -1 137 2 140
8 7 14 -436 19 -445 5z"/>
<path d="M5070 265 c0 -13 13 -15 80 -13 107 4 108 22 3 26 -70 2 -83 0 -83
-13z"/>
<path d="M5390 265 c0 -13 15 -15 108 -13 63 2 107 7 107 13 0 6 -44 11 -107
13 -93 2 -108 0 -108 -13z"/>
<path d="M5867 274 c-19 -19 24 -24 224 -24 199 0 258 7 197 24 -31 8 -413 8
-421 0z"/>
</g>
</svg>
